<svg width="157" height="28" viewBox="0 0 157 28" fill="none" xmlns="http://www.w3.org/2000/svg">
<path d="M2.44922 20.9609V8.73828H0.339844V6.69922H7.00781V8.73828H5.00391V20.9609H9.99609V15.418H12.293V23H0.339844V20.9609H2.44922ZM23.8828 17.2695H18.0234L16.7695 20.9609H18.75V23H12.3281V20.9609H14.2969L18.75 8.53906H16.7695V6.69922H25.1016V8.53906H23.0742L27.6328 20.9609H29.4609V23H23.0742V20.9609H25.1016L23.8828 17.2695ZM23.2734 15.3594L21.1055 8.53906H20.8828L18.6328 15.3594H23.2734ZM36.1055 23V17.082H38.1445V18.5234C39.1211 20.2969 40.3984 21.1836 41.9766 21.1836C42.7812 21.1836 43.4609 20.9375 44.0156 20.4453C44.5703 19.9531 44.8477 19.3086 44.8477 18.5117C44.8477 17.7383 44.6211 17.1836 44.168 16.8477C43.7148 16.5039 42.8594 16.1641 41.6016 15.8281C40.1406 15.4375 39.0586 15.0703 38.3555 14.7266C37.6523 14.375 37.0898 13.8789 36.668 13.2383C36.2539 12.5898 36.0469 11.8242 36.0469 10.9414C36.0469 9.57422 36.5 8.48438 37.4062 7.67188C38.3203 6.85156 39.4648 6.44141 40.8398 6.44141C42.1445 6.44141 43.3555 6.86328 44.4727 7.70703V6.61719H46.4648V11.5625H44.4727V10.4258C43.6367 9.16797 42.4844 8.53906 41.0156 8.53906C40.125 8.53906 39.4414 8.74609 38.9648 9.16016C38.4883 9.56641 38.25 10.0547 38.25 10.625C38.25 11.0625 38.3711 11.4492 38.6133 11.7852C38.8555 12.1133 39.1641 12.3555 39.5391 12.5117C39.9141 12.668 40.6523 12.8867 41.7539 13.168C43.1914 13.543 44.2344 13.8945 44.8828 14.2227C45.5312 14.543 46.0898 15.082 46.5586 15.8398C47.0273 16.5977 47.2617 17.4688 47.2617 18.4531C47.2617 19.8438 46.7695 20.9922 45.7852 21.8984C44.8086 22.8047 43.5977 23.2578 42.1523 23.2578C40.668 23.2578 39.332 22.7227 38.1445 21.6523V23H36.1055ZM53.6836 20.9609V8.73828H50.3203V12.8984H48.3047V6.69922H61.5117V12.8984H59.4961V8.73828H56.1445V20.9609H58.2656V23H51.5977V20.9609H53.6836ZM64.5469 20.9609V8.73828H62.4375V6.69922H75.9844V11.6094H73.9688V8.73828H67.0078V13.5898H73.0664V15.6289H67.0078V20.9609H73.9688V17.9961H75.9844V23H62.4375V20.9609H64.5469ZM88.1484 17.2695H82.2891L81.0352 20.9609H83.0156V23H76.5938V20.9609H78.5625L83.0156 8.53906H81.0352V6.69922H89.3672V8.53906H87.3398L91.8984 20.9609H93.7266V23H87.3398V20.9609H89.3672L88.1484 17.2695ZM87.5391 15.3594L85.3711 8.53906H85.1484L82.8984 15.3594H87.5391ZM96.082 20.9609V8.73828H94.125V6.69922H99.7031L103.992 17.8672L108.328 6.69922H113.965V8.73828H111.996V20.9609H113.965V23H107.824V20.9609H109.77V8.73828L104.145 23.1641H103.664L98.0977 8.73828V20.9609H99.8906V23H94.125V20.9609H96.082ZM117.305 20.9609V8.73828H115.195V6.69922H128.742V11.6094H126.727V8.73828H119.766V13.5898H125.824V15.6289H119.766V20.9609H126.727V17.9961H128.742V23H115.195V20.9609H117.305ZM132.082 20.9609V8.73828H129.844V6.69922H136.465C137.848 6.69922 138.945 6.80859 139.758 7.02734C140.57 7.23828 141.242 7.69141 141.773 8.38672C142.305 9.07422 142.57 9.93359 142.57 10.9648C142.57 13.1211 141.449 14.4766 139.207 15.0312L142.09 20.9609H144.082V23H140.555L136.84 15.3828H134.543V20.9609H136.629V23H129.844V20.9609H132.082ZM134.543 13.3438H136.465C137.395 13.3438 138.078 13.2852 138.516 13.168C138.961 13.043 139.324 12.7969 139.605 12.4297C139.887 12.0547 140.027 11.5547 140.027 10.9297C140.027 10.3984 139.883 9.94922 139.594 9.58203C139.312 9.21484 138.961 8.98438 138.539 8.89062C138.125 8.78906 137.488 8.73828 136.629 8.73828H134.543V13.3438ZM144.879 23V17.082H146.918V18.5234C147.895 20.2969 149.172 21.1836 150.75 21.1836C151.555 21.1836 152.234 20.9375 152.789 20.4453C153.344 19.9531 153.621 19.3086 153.621 18.5117C153.621 17.7383 153.395 17.1836 152.941 16.8477C152.488 16.5039 151.633 16.1641 150.375 15.8281C148.914 15.4375 147.832 15.0703 147.129 14.7266C146.426 14.375 145.863 13.8789 145.441 13.2383C145.027 12.5898 144.82 11.8242 144.82 10.9414C144.82 9.57422 145.273 8.48438 146.18 7.67188C147.094 6.85156 148.238 6.44141 149.613 6.44141C150.918 6.44141 152.129 6.86328 153.246 7.70703V6.61719H155.238V11.5625H153.246V10.4258C152.41 9.16797 151.258 8.53906 149.789 8.53906C148.898 8.53906 148.215 8.74609 147.738 9.16016C147.262 9.56641 147.023 10.0547 147.023 10.625C147.023 11.0625 147.145 11.4492 147.387 11.7852C147.629 12.1133 147.938 12.3555 148.312 12.5117C148.688 12.668 149.426 12.8867 150.527 13.168C151.965 13.543 153.008 13.8945 153.656 14.2227C154.305 14.543 154.863 15.082 155.332 15.8398C155.801 16.5977 156.035 17.4688 156.035 18.4531C156.035 19.8438 155.543 20.9922 154.559 21.8984C153.582 22.8047 152.371 23.2578 150.926 23.2578C149.441 23.2578 148.105 22.7227 146.918 21.6523V23H144.879Z" fill="white"/>
</svg>
